#tb 0: 125/2997
#media_type 0: video
#codec_id 0: rawvideo
#dimensions 0: 1280x718
#sar 0: 1/1
#tb 1: 1/48000
#media_type 1: audio
#codec_id 1: pcm_s32le
#sample_rate 1: 48000
#channel_layout_name 1: stereo
0,          0,          0,        1,  1378560, 0xbaf121ba
1,          0,          0,     1024,     8192, 0x00000000
1,       1024,       1024,     1024,     8192, 0x00000000
0,          1,          1,        1,  1378560, 0xbaf121ba
1,       2040,       2040,     1024,     8192, 0x00000000
1,       3048,       3048,     1024,     8192, 0x00000000
0,          2,          2,        1,  1378560, 0x6579d31a
1,       4072,       4072,     1024,     8192, 0x00000000
1,       5096,       5096,     1024,     8192, 0x00000000
0,          3,          3,        1,  1378560, 0xca1deba8
1,       6120,       6120,     1024,     8192, 0x00000000
1,       7128,       7128,     1024,     8192, 0x00000000
0,          4,          4,        1,  1378560, 0xd4eed467
1,       8208,       8208,     1024,     8192, 0x00000000
1,       9232,       9232,     1024,     8192, 0x00000000
0,          5,          5,        1,  1378560, 0xd6e1d5b7
1,      10248,      10248,     1024,     8192, 0x00000000
1,      11272,      11272,     1024,     8192, 0x00000000
0,          6,          6,        1,  1378560, 0x0b574d39
1,      12296,      12296,     1024,     8192, 0x00000000
1,      13320,      13320,     1024,     8192, 0x00000000
0,          7,          7,        1,  1378560, 0x1bdd4d61
1,      14344,      14344,     1024,     8192, 0x00000000
1,      15368,      15368,     1024,     8192, 0x00000000
0,          8,          8,        1,  1378560, 0x3b28f549
1,      16392,      16392,     1024,     8192, 0x00000000
1,      17400,      17400,     1024,     8192, 0x00000000
0,          9,          9,        1,  1378560, 0x45b2f57b
1,      18408,      18408,     1024,     8192, 0x00000000
1,      19432,      19432,     1024,     8192, 0x00000000
0,         10,         10,        1,  1378560, 0x8955570e
1,      20456,      20456,     1024,     8192, 0x00000000
1,      21480,      21480,     1024,     8192, 0x00000000
1,      22504,      22504,     1024,     8192, 0x00000000
1,      23528,      23528,     1024,     8192, 0x00000000
0,         12,         12,        1,  1378560, 0x9c598000
1,      25584,      25584,     1024,     8192, 0x00000000
0,         13,         13,        1,  1378560, 0xbaf121ba
1,      26608,      26608,     1024,     8192, 0x00000000
1,      27624,      27624,     1024,     8192, 0x00000000
0,         14,         14,        1,  1378560, 0xbaf121ba
1,      28648,      28648,     1024,     8192, 0x00000000
1,      29672,      29672,     1024,     8192, 0x00000000
0,         15,         15,        1,  1378560, 0x6579d31a
1,      30696,      30696,     1024,     8192, 0x00000000
1,      31704,      31704,     1024,     8192, 0x00000000
0,         16,         16,        1,  1378560, 0xca1deba8
1,      32784,      32784,     1024,     8192, 0x00000000
1,      33808,      33808,     1024,     8192, 0x00000000
0,         17,         17,        1,  1378560, 0xd4eed467
1,      34824,      34824,     1024,     8192, 0x00000000
1,      35848,      35848,     1024,     8192, 0x00000000
0,         18,         18,        1,  1378560, 0xd6e1d5b7
1,      36872,      36872,     1024,     8192, 0x00000000
1,      37896,      37896,     1024,     8192, 0x00000000
0,         19,         19,        1,  1378560, 0x0b574d39
1,      38920,      38920,     1024,     8192, 0x00000000
1,      39944,      39944,     1024,     8192, 0x00000000
0,         20,         20,        1,  1378560, 0x1bdd4d61
1,      40968,      40968,     1024,     8192, 0x00000000
1,      41976,      41976,     1024,     8192, 0x00000000
0,         21,         21,        1,  1378560, 0x3b28f549
1,      42984,      42984,     1024,     8192, 0x00000000
1,      44008,      44008,     1024,     8192, 0x00000000
0,         22,         22,        1,  1378560, 0x45b2f57b
1,      45032,      45032,     1024,     8192, 0x00000000
0,         23,         23,        1,  1378560, 0x8955570e
1,      46056,      46056,     1024,     8192, 0x00000000
1,      47080,      47080,     1024,     8192, 0x00000000
0,         24,         24,        1,  1378560, 0x9c598000
1,      48104,      48104,     1024,     8192, 0x00000000
0,         25,         25,        1,  1378560, 0xbaf121ba
1,      50160,      50160,     1024,     8192, 0x00000000
1,      51184,      51184,     1024,     8192, 0x00000000
0,         26,         26,        1,  1378560, 0xbaf121ba
1,      52200,      52200,     1024,     8192, 0x00000000
1,      53224,      53224,     1024,     8192, 0x00000000
0,         27,         27,        1,  1378560, 0x6579d31a
1,      54248,      54248,     1024,     8192, 0x00000000
1,      55272,      55272,     1024,     8192, 0x00000000
0,         28,         28,        1,  1378560, 0xca1deba8
1,      56280,      56280,     1024,     8192, 0x00000000
1,      57360,      57360,     1024,     8192, 0x00000000
0,         29,         29,        1,  1378560, 0xd4eed467
1,      58384,      58384,     1024,     8192, 0x00000000
1,      59400,      59400,     1024,     8192, 0x00000000
0,         30,         30,        1,  1378560, 0xd6e1d5b7
1,      60424,      60424,     1024,     8192, 0x00000000
1,      61448,      61448,     1024,     8192, 0x00000000
0,         31,         31,        1,  1378560, 0x0b574d39
1,      62472,      62472,     1024,     8192, 0x00000000
1,      63496,      63496,     1024,     8192, 0x00000000
0,         32,         32,        1,  1378560, 0x1bdd4d61
1,      64520,      64520,     1024,     8192, 0x00000000
1,      65544,      65544,     1024,     8192, 0x00000000
0,         33,         33,        1,  1378560, 0x3b28f549
1,      66552,      66552,     1024,     8192, 0x00000000
1,      67560,      67560,     1024,     8192, 0x00000000
0,         34,         34,        1,  1378560, 0x45b2f57b
1,      68584,      68584,     1024,     8192, 0x00000000
1,      69608,      69608,     1024,     8192, 0x00000000
0,         35,         35,        1,  1378560, 0x8955570e
1,      70632,      70632,     1024,     8192, 0x00000000
1,      71656,      71656,     1024,     8192, 0x00000000
1,      72680,      72680,     1024,     8192, 0x00000000
0,         37,         37,        1,  1378560, 0x9c598000
1,      74736,      74736,     1024,     8192, 0x00000000
1,      75760,      75760,     1024,     8192, 0x00000000
0,         38,         38,        1,  1378560, 0xbaf121ba
1,      76776,      76776,     1024,     8192, 0x00000000
1,      77800,      77800,     1024,     8192, 0x00000000
0,         39,         39,        1,  1378560, 0xbaf121ba
1,      78824,      78824,     1024,     8192, 0x00000000
1,      79848,      79848,     1024,     8192, 0x00000000
0,         40,         40,        1,  1378560, 0x6579d31a
1,      80856,      80856,     1024,     8192, 0x00000000
1,      81936,      81936,     1024,     8192, 0x00000000
0,         41,         41,        1,  1378560, 0xca1deba8
1,      82960,      82960,     1024,     8192, 0x00000000
1,      83976,      83976,     1024,     8192, 0x00000000
0,         42,         42,        1,  1378560, 0xd4eed467
1,      85000,      85000,     1024,     8192, 0x00000000
1,      86024,      86024,     1024,     8192, 0x00000000
0,         43,         43,        1,  1378560, 0xd6e1d5b7
1,      87048,      87048,     1024,     8192, 0x00000000
1,      88072,      88072,     1024,     8192, 0x00000000
0,         44,         44,        1,  1378560, 0x0b574d39
1,      89096,      89096,     1024,     8192, 0x00000000
0,         45,         45,        1,  1378560, 0x1bdd4d61
1,      90120,      90120,     1024,     8192, 0x00000000
1,      91128,      91128,     1024,     8192, 0x00000000
0,         46,         46,        1,  1378560, 0x3b28f549
1,      92136,      92136,     1024,     8192, 0x00000000
1,      93160,      93160,     1024,     8192, 0x00000000
0,         47,         47,        1,  1378560, 0x45b2f57b
1,      94184,      94184,     1024,     8192, 0x00000000
1,      95208,      95208,     1024,     8192, 0x00000000
0,         48,         48,        1,  1378560, 0x8955570e
1,      96232,      96232,     1024,     8192, 0x00000000
1,      97256,      97256,     1024,     8192, 0x00000000
0,         49,         49,        1,  1378560, 0x9c598000
